# xmcd
#
# Track frame offsets: 
#        183
#        12615
#        27183
#        34700
#        51233
#        63548
#        79068
#        93155
#        104705
#        114170
#        127198
#        141663
#
# Disc length: 2101 seconds
#
# Revision: 0
# Processed by: cddbd v1.4PL0 Copyright (c) Steve Scherf et al.
# Submitted via: ExactAudioCopy v0.90b3
#
DISCID=aa08330c
DTITLE=Ella Fitzgerald - The Best of Ella Fitzgerald
DYEAR=1900
DGENRE=Blues
TTITLE0=My Heart Belongs To Daddy
TTITLE1=Looking For A Boy
TTITLE2=When You Are Smiling
TTITLE3=I'm Beginnin' To See The Light
TTITLE4=Nice Work If You Can Get It
TTITLE5=I Can't Give You Anything But Love Baby
TTITLE6=April In Paris
TTITLE7=Later
TTITLE8=Lover Come Back To Me
TTITLE9=Soon
TTITLE10=Oh Lady, Be Good!
TTITLE11=Fogg Day
EXTD=
EXTT0=
EXTT1=
EXTT2=
EXTT3=
EXTT4=
EXTT5=
EXTT6=
EXTT7=
EXTT8=
EXTT9=
EXTT10=
EXTT11=
PLAYORDER=
